# xmcd
#
# Track frame offsets:
#	150
#	14475
#	24097
#	35592
#	48180
#	62860
#	74690
#	88682
#	110855
#	119240
#	132565
#	144137
#	156102
#	167125
#	178807
#	191077
#
# Disc length: 2752 seconds
#
# Revision: 1
# Processed by: cddbd v1.5.2PL0 Copyright (c) Steve Scherf et al.
# Submitted via: audiograbber 1.83.01
#
DISCID=ef0abe10
DTITLE=Johnny Western - Gunfight At O.K. Corral
DYEAR=1989
DGENRE=Country
TTITLE0=Ghost Riders In The Sky
TTITLE1=Gunfight At O.K. Coral
TTITLE2=The Gunfighter
TTITLE3=Don't Take Your Guns To Town
TTITLE4=Ringo
TTITLE5=The Hangin' Tree
TTITLE6=Cross The Brazos At Waco
TTITLE7=Johnny Yuma - Ballad Of Paladin
TTITLE8=Rawhide
TTITLE9=The Searchers
TTITLE10=High Noon
TTITLE11=Song Of The Bandit
TTITLE12=Hannah Lee
TTITLE13=The Lillies Grow High
TTITLE14=Ballad Of Boot Hill
TTITLE15=Cheyenne - Wyatt Earp/ Bat Masterson
EXTD=Bear Family Records, 1989;\nOriginal LP issue on Americana
EXTT0=
EXTT1=
EXTT2=
EXTT3=
EXTT4=
EXTT5=
EXTT6=
EXTT7=
EXTT8=
EXTT9=
EXTT10=
EXTT11=
EXTT12=
EXTT13=
EXTT14=
EXTT15=
PLAYORDER=
